<svg width="32" height="32" viewBox="0 0 32 32" fill="none" xmlns="http://www.w3.org/2000/svg">
<path d="M10.8508 10.7706C10.9497 10.8396 11.0666 10.8764 11.1863 10.876H11.1877C11.2806 10.876 11.3721 10.8538 11.455 10.8113C11.538 10.7687 11.6102 10.707 11.6659 10.6309C11.7216 10.5548 11.7592 10.4666 11.7758 10.373C11.7924 10.2795 11.7875 10.1833 11.7616 10.092C11.4175 8.54843 11.5805 7.30525 12.2461 6.3969C13.0304 5.32645 13.3778 3.95293 13.1753 2.72287C12.9966 1.63281 12.4245 0.726722 11.5214 0.103111C11.3215 -0.0354143 11.0467 -0.0343298 10.8474 0.106167C10.7482 0.175823 10.6719 0.274632 10.6286 0.389577C10.5853 0.504522 10.577 0.630212 10.6048 0.750089C10.9763 2.37414 10.6385 3.40297 9.79121 4.96432C9.26358 5.93646 9.04808 7.02859 9.18437 8.03938C9.33875 9.18249 9.91584 10.1275 10.8508 10.7706ZM15.7527 10.5085C15.8457 10.574 15.9559 10.609 16.0688 10.6089H16.0696C16.2187 10.6086 16.3616 10.5479 16.467 10.4399C16.5724 10.3318 16.6317 10.1854 16.6319 10.0327C16.6319 9.97883 16.6245 9.92526 16.6099 9.87354C16.349 8.69878 16.471 7.75592 16.9726 7.07118C17.6006 6.2145 17.8787 5.11379 17.7164 4.12705C17.5723 3.24897 17.1114 2.51888 16.3836 2.01604C16.1964 1.88649 15.9427 1.88452 15.7485 2.01999C15.5594 2.15437 15.4686 2.39859 15.5219 2.62477C15.8051 3.86193 15.5457 4.64931 14.8959 5.84644C14.4736 6.62445 14.3014 7.49899 14.4109 8.30874C14.535 9.22981 15.0002 9.99136 15.7527 10.5085ZM31.1581 14.2189C30.7856 13.7697 30.253 13.5223 29.6584 13.5223H26.9008C26.9294 13.038 26.8424 12.4339 26.5054 12.0274C26.2562 11.7269 25.9011 11.5681 25.4785 11.5681H1.57738C0.951776 11.5681 0.59133 11.844 0.399221 12.0756C0.00566683 12.5496 -0.0485202 13.2595 0.0318461 13.7658C0.690176 17.909 2.11242 21.6727 4.03678 24.3636C5.46095 26.3551 7.12949 27.7743 9.02402 28.614H2.36651C1.53946 28.614 0.866693 29.3033 0.866693 30.1504C0.866693 30.9975 1.53956 31.6868 2.36651 31.6868H24.54C25.3671 31.6868 26.0399 30.9975 26.0399 30.1504C26.0399 29.3033 25.3671 28.614 24.54 28.614H17.9176C19.4778 27.9259 20.8799 26.8479 22.1144 25.3851C24.2316 25.1994 26.358 24.1636 28.1695 22.4211C30.0218 20.6394 31.2843 18.365 31.6337 16.1814C31.6775 15.9082 31.7723 14.9595 31.1581 14.2189ZM24.5651 21.5131C25.37 19.8222 25.9338 18.078 26.3277 16.4802H28.6028C28.0253 18.3774 26.4713 20.3746 24.5651 21.5131Z" fill="white"/>
</svg>
