<svg width="41" height="40" viewBox="0 0 41 40" fill="none" xmlns="http://www.w3.org/2000/svg">
<g clip-path="url(#clip0_136_6239)">
<path fill-rule="evenodd" clip-rule="evenodd" d="M14.8896 9.20765V8.45147C14.8896 5.92405 6.83617 5.92405 6.83617 8.45147V9.07319C9.72387 7.4871 12.0024 7.71772 14.8896 9.20765ZM34.1637 9.07319V8.45147C34.1637 5.92405 26.1103 5.92405 26.1103 8.45147V9.20765C28.9976 7.7178 31.2761 7.4871 34.1637 9.07319ZM14.9213 10.2931C18.1434 12.0699 22.8566 12.0699 26.0786 10.2931C28.9688 8.69944 31.0924 8.26249 34.2632 10.2237C37.8801 12.4609 40.7027 21.2703 40.1235 27.2198C39.439 34.2523 33.1446 35.2564 28.7119 30.5828C26.4238 28.1704 23.9152 26.8663 20.5 26.8319C17.0848 26.8664 14.5761 28.1704 12.2881 30.5828C7.85533 35.2564 1.56095 34.2523 0.876438 27.2198C0.297233 21.2702 3.11983 12.4609 6.73672 10.2237C9.90757 8.26249 12.0312 8.69944 14.9213 10.2931ZM12.2823 18.3301V15.4877H9.3688V18.3301H6.45532V21.1725H9.3688V24.0149H12.2823V21.1725H15.1957V18.3301H12.2823ZM29.7176 15.0421C28.8975 15.0421 28.2326 15.6908 28.2326 16.4908C28.2326 17.2909 28.8975 17.9396 29.7176 17.9396C30.5377 17.9396 31.2026 17.2909 31.2026 16.4908C31.2026 15.6908 30.5377 15.0421 29.7176 15.0421ZM27.8607 19.7512C27.8607 18.9511 27.1958 18.3025 26.3757 18.3025C25.5556 18.3025 24.8907 18.9512 24.8907 19.7512C24.8907 20.5513 25.5556 21.2 26.3757 21.2C27.1958 21.2 27.8607 20.5513 27.8607 19.7512ZM29.7176 21.5629C28.8975 21.5629 28.2326 22.2116 28.2326 23.0116C28.2326 23.8117 28.8975 24.4604 29.7176 24.4604C30.5377 24.4604 31.2026 23.8117 31.2026 23.0116C31.2026 22.2116 30.5377 21.5629 29.7176 21.5629ZM34.5445 19.7512C34.5445 18.9511 33.8796 18.3025 33.0595 18.3025C32.2394 18.3025 31.5745 18.9512 31.5745 19.7512C31.5745 20.5513 32.2394 21.2 33.0595 21.2C33.8796 21.2 34.5445 20.5513 34.5445 19.7512Z" fill="white"/>
</g>
<defs>
<clipPath id="clip0_136_6239">
<rect width="41" height="40" fill="white"/>
</clipPath>
</defs>
</svg>
