<svg width="34" height="26" viewBox="0 0 34 26" fill="none" xmlns="http://www.w3.org/2000/svg">
<path d="M17.0804 25.5868C19.2741 25.5868 21.0524 23.8085 21.0524 21.6148C21.0524 19.4212 19.2741 17.6428 17.0804 17.6428C14.8867 17.6428 13.1084 19.4212 13.1084 21.6148C13.1084 23.8085 14.8867 25.5868 17.0804 25.5868Z" fill="white"/>
<path d="M26.5731 12.0447C26.5141 11.9842 26.4519 11.9301 26.3913 11.8745L26.2129 11.7058C26.1834 11.6747 26.1506 11.6518 26.113 11.6223C23.6486 9.37584 20.413 8.16593 17.0793 8.24431C13.7456 8.32268 10.5705 9.68329 8.21439 12.0431L7.6397 12.6194L6.84399 13.4151C6.37875 13.8832 6.11816 14.5166 6.11939 15.1765C6.12062 15.8365 6.38356 16.469 6.85054 16.9353C7.08122 17.1669 7.35526 17.3508 7.65702 17.4765C7.95879 17.6021 8.28236 17.6672 8.60925 17.6678C8.93614 17.6684 9.25995 17.6046 9.56217 17.48C9.8644 17.3554 10.1391 17.1726 10.3707 16.9418L11.7427 15.5698C13.2432 14.0738 15.2754 13.2337 17.3942 13.2334C19.513 13.2331 21.5455 14.0726 23.0464 15.5681L24.0369 16.5276C24.5009 16.9887 25.129 17.2468 25.7831 17.2453C26.4373 17.2438 27.0641 16.9827 27.5259 16.5194C27.7561 16.2908 27.9387 16.0189 28.0632 15.7193C28.1877 15.4197 28.2516 15.0985 28.2513 14.7741C28.2534 14.4507 28.1909 14.1302 28.0675 13.8313C27.944 13.5325 27.7622 13.2613 27.5325 13.0336L26.5731 12.0447Z" fill="white"/>
<path d="M33.34 7.13468L32.5149 6.3095C32.5116 6.30623 32.51 6.30131 32.5034 6.29968L31.8518 5.64477C31.7387 5.53377 31.6148 5.43448 31.4818 5.34842C23.1104 -2.00126 10.3774 -1.77532 2.27292 6.02134C2.23362 6.05736 2.18942 6.08192 2.15012 6.12121L0.660209 7.61276C0.450012 7.82388 0.283508 8.07437 0.170224 8.3499C0.0569391 8.62543 -0.000901805 8.9206 1.06291e-05 9.2185C0.000923063 9.51641 0.060571 9.81122 0.175541 10.0861C0.290511 10.3609 0.458547 10.6103 0.670032 10.8202C0.879961 11.0315 1.12951 11.1995 1.4044 11.3143C1.67929 11.4291 1.97413 11.4886 2.27204 11.4894C2.56995 11.4901 2.86508 11.4321 3.14056 11.3187C3.41603 11.2053 3.66643 11.0387 3.87744 10.8284L5.36735 9.34008C5.37717 9.32698 5.38536 9.31552 5.39518 9.30733C11.9492 2.97603 22.3458 2.93673 28.9522 9.17799L30.1245 10.3519C30.5513 10.7759 31.129 11.0132 31.7307 11.0117C32.3323 11.0102 32.9088 10.7699 33.3335 10.3437C33.7591 9.91861 33.9988 9.3421 34 8.74056C34.0012 8.13902 33.7639 7.56153 33.34 7.13468Z" fill="white"/>
</svg>
