<svg xmlns="http://www.w3.org/2000/svg" width="21" height="21" fill="none" viewBox="0 0 21 21">
  <path fill="#CD050A" d="m7.405 13.155-3.436-.974-1.11 1.306-1.7 2.004L0 14.288l.156-.248 2.48-4.56c1.182-.166 2.167-.16 3.308-.29l1.167-1.094c2.055-1.927 4.207-3.389 6.627-4.834C15.855 1.998 18.177.802 20.55 0c-.79 2.016-1.647 3.924-2.666 5.8-1.78 3.28-4.053 6.222-6.627 8.89l-.166 3.166-.64.353-4.27 2.39-.658-.75c-.148-.17-.306-.297-.459-.484l1.865-1.56.904-.75.564-.484-.814-2.761-.177-.655h-.002Z"/>
</svg>
