<svg width="147" height="30" viewBox="0 0 147 30" fill="none" xmlns="http://www.w3.org/2000/svg">
<g clip-path="url(#clip0_124_3080)">
<path d="M146.802 19.2022H127.557C125.784 19.2022 124.211 17.9174 124.202 16.1842L124.173 10.4546C124.168 9.43042 124.864 8.22342 125.781 7.69237C126.237 7.42782 126.681 7.25081 127.239 7.24206L144.858 7.24011V11.9641L129.543 11.9679L129.538 13.9822L146.992 13.9842L147 18.3268V18.8695L146.995 19.1137C146.995 19.1322 147.049 19.2032 146.802 19.2032V19.2022Z" fill="#CD050A"/>
<path d="M52.2307 19.1993L33.062 19.2022L33.0601 13.9783L50.224 13.9764L50.2308 11.966L38.177 11.9602C36.4775 11.9602 35.1193 10.369 35.023 8.65428C34.9968 8.18062 35.0123 7.72058 35.0133 7.23914L52.6945 7.24108C53.2253 7.24108 53.6716 7.49979 54.0955 7.73614C55.0648 8.27788 55.6384 9.49072 55.6394 10.6005L55.6433 15.943C55.6433 17.2288 54.7877 18.4017 53.658 18.9337C53.2175 19.1409 52.7761 19.1642 52.2317 19.1983L52.2307 19.1993Z" fill="#CD050A"/>
<path d="M93.5957 19.2022L93.5587 16.0072H84.5091L82.0338 19.2002L78.3247 19.1886L75.7356 19.1856L78.7495 14.9636L81.7479 10.8251L82.7542 9.44208L84.3341 7.23816L91.0212 7.24205C90.8433 7.58052 90.6352 7.79643 90.3883 8.10767L87.911 11.2356C87.8828 11.2716 87.8876 11.3309 87.8944 11.3659L92.9491 11.3678C93.1718 11.3639 93.3536 11.3542 93.5685 11.328L93.5704 7.24205L98.9799 7.23913L98.9819 19.101L98.9265 19.1993L93.5947 19.2022H93.5957Z" fill="#CD050A"/>
<path d="M17.723 30C17.5207 28.4263 16.2695 27.1444 14.6983 27.0442C13.6347 26.9771 12.6518 27.407 11.9897 28.224C11.5774 28.7327 11.3149 29.2705 11.2858 29.9368C9.25669 29.5798 6.98845 28.4399 5.37842 27.1425L9.56878 23.6216L10.8939 22.4934C11.9644 23.0449 13.099 23.3658 14.2861 23.3581L14.746 23.3551C17.0745 23.3415 19.2348 22.1841 20.6961 20.3936C21.7821 18.9259 22.3236 17.5263 22.382 15.6531C24.2992 13.3149 25.9744 10.8358 27.5037 8.15625C28.1921 9.48288 28.649 10.8076 29.0087 12.2023C28.3243 12.3044 27.7089 12.5164 27.2082 12.9522C26.1358 13.8956 25.7858 15.3769 26.3448 16.7103C26.7609 17.7053 27.8936 18.5709 29.0506 18.6837C28.7326 20.342 28.0472 22.0801 27.1022 23.5283C26.6705 23.0575 25.9384 22.7045 25.2889 22.65C24.0075 22.544 22.8272 23.1509 22.1632 24.2568C21.4447 25.4531 21.6392 26.9246 22.485 28.0412C20.8507 29.0468 19.5965 29.5351 17.7239 29.999L17.723 30Z" fill="white"/>
<path d="M2.63769 24.3861C2.18463 23.822 1.8492 23.2813 1.51572 22.6627C0.84585 21.4207 0.296534 20.131 0 18.7003C1.17641 18.5223 2.19435 17.8016 2.66297 16.7123C3.0052 15.9177 2.97311 15.0297 2.70283 14.2312C2.20796 13.0893 1.32905 12.3657 0.0690291 12.2033C0.318895 11.079 0.692236 10.0042 1.2328 8.99467L2.04365 7.4813L2.73978 7.83144C4.36828 8.6494 6.46152 7.65151 7.01958 5.95042C7.35209 4.93599 7.21987 3.86807 6.64138 2.97717L7.4532 2.486C8.61989 1.78086 9.89742 1.34027 11.2702 0.995972C11.3986 2.04736 11.9926 2.91687 12.8948 3.45763C13.7125 3.93907 14.6721 4.0091 15.5773 3.6969C16.7109 3.24561 17.4926 2.26133 17.6783 1.01056C19.0511 1.2897 20.3325 1.75849 21.5867 2.47919C21.2279 2.72818 20.9081 2.90033 20.5444 3.09777C18.3734 4.42246 16.32 5.87845 14.3435 7.47838C14.2044 7.59121 14.0713 7.65053 13.905 7.65832C13.5783 7.6729 13.2935 7.71375 12.9755 7.776C11.2556 8.11349 9.72728 8.98689 8.5742 10.3184C6.49943 12.6274 6.05123 16.1229 7.39098 18.9376L3.54382 23.3659C3.24048 23.715 2.99256 24.0156 2.63575 24.3861H2.63769Z" fill="white"/>
<path d="M121.89 19.2032L104.289 19.2051C102.542 19.0359 101.345 17.6022 101.228 15.8866V7.24206L106.656 7.24109L106.654 13.9822L121.881 13.9793L121.89 19.2032Z" fill="#CD050A"/>
<path d="M76.1069 11.9514L63.2646 11.9689L63.2675 19.2032L57.8181 19.2061L57.8249 7.24207H78.9653L78.9508 8.85464C78.9371 10.4069 77.5643 11.9504 76.106 11.9524L76.1069 11.9514Z" fill="#CD050A"/>
<path d="M15.6968 14.2166L12.2609 13.243L11.1516 14.5492L9.45212 16.5528L8.29224 15.3497L8.44779 15.1017L10.929 10.5421C12.1102 10.3758 13.0951 10.3826 14.2365 10.2513L15.4032 9.1581C17.4585 7.23137 19.6101 5.76954 22.03 4.32425C24.1475 3.05986 26.4693 1.86356 28.8435 1.06213C28.053 3.07834 27.1965 4.98659 26.1776 6.86275C24.3974 10.1414 22.1243 13.0845 19.5498 15.7514L19.3845 18.9182L18.7438 19.2712L14.4747 21.6619L13.8165 20.9111C13.6678 20.7418 13.5103 20.6144 13.3576 20.4267L15.2224 18.8676L16.1266 18.1177L16.6905 17.6334L15.8767 14.8722L15.6988 14.2166H15.6968Z" fill="#CD050A"/>
<path d="M144.857 5.20538L124.172 5.2083V0H144.767C144.824 0.0233425 144.844 0.0457124 144.857 0.0962879V5.20441V5.20538Z" fill="white"/>
<path d="M76.8459 0.217867C77.9688 0.617608 78.8759 1.77404 78.9449 3.01216C78.9858 3.74453 78.9585 4.46912 78.9614 5.20733H57.8181L57.8239 0.000976562H75.9757C76.2907 0.0748945 76.562 0.117689 76.8459 0.21884V0.217867Z" fill="white"/>
<path d="M101.236 3.22711C101.236 2.83321 101.379 2.45292 101.481 2.11445C101.676 1.58244 102.001 1.20312 102.409 0.843256C102.817 0.483392 103.235 0.217871 103.779 0.120611L104.44 0.00195312H121.888V5.20831H101.232L101.237 3.22711H101.236Z" fill="white"/>
<path d="M35.022 5.20733C35.0026 3.05106 34.7945 1.81683 36.6729 0.44448C37.1969 0.176041 37.719 0.0486302 38.3257 0H55.6199V5.20733H35.022Z" fill="white"/>
<path d="M85.7817 5.20731L88.4087 1.63007C89.5297 0.103083 93.2787 -0.136178 94.9821 0.0651512C96.3549 0.227576 97.7063 0.643851 98.4588 1.89073C99.0752 2.91197 98.9828 4.02463 98.9809 5.20731H85.7817Z" fill="white"/>
<path d="M74.5563 27.1103L76.3335 27.4887C76.0497 28.3524 75.4702 29.0886 74.5718 29.3571C73.5636 29.6576 72.1801 29.5963 71.3022 28.9009C70.7412 28.4564 70.3805 27.8174 70.223 27.1171C69.8312 25.3772 70.2677 23.0721 72.1549 22.4263C72.957 22.151 73.8563 22.1841 74.6311 22.5089C76.1206 23.1353 76.5222 24.9813 76.4308 26.4334L72.009 26.4217C71.9633 27.0063 72.2375 27.5694 72.709 27.8894C73.0231 28.1024 73.3935 28.1646 73.7454 28.0577C74.1538 27.8826 74.4153 27.583 74.5563 27.1123V27.1103ZM74.6136 25.2206C74.6088 24.6594 74.4075 24.2412 74.0429 23.9212C73.446 23.4991 72.6556 23.6566 72.2618 24.282C72.0926 24.5514 72.011 24.8792 72.0158 25.2264L74.6136 25.2215V25.2206Z" fill="white"/>
<path d="M116.923 28.0849C117.428 27.9711 117.567 27.4692 117.809 27.1337L119.542 27.5052C119.226 28.6529 118.27 29.4193 117.079 29.4923C116.13 29.5506 115.231 29.5 114.483 28.8484C113.905 28.3436 113.538 27.6988 113.429 26.9304C113.33 26.2447 113.342 25.56 113.443 24.8772C113.516 24.3861 113.711 23.9649 113.965 23.5516C114.654 22.4321 115.929 22.0742 117.172 22.3066C118.012 22.4632 118.696 22.9272 119.115 23.6761C119.584 24.4736 119.66 25.5299 119.656 26.4373L115.224 26.4149C115.197 26.8244 115.312 27.2115 115.546 27.5393C115.864 27.9837 116.375 28.2084 116.925 28.0849H116.923ZM117.812 25.2284C117.816 24.7168 117.619 24.3413 117.341 23.9844C116.816 23.5701 116.024 23.6167 115.6 24.1536C115.359 24.4571 115.26 24.8267 115.285 25.2254L117.812 25.2284Z" fill="white"/>
<path d="M66.1416 28.5032C65.252 29.6869 63.2851 29.646 62.0368 29.3338C61.0577 29.0887 60.3878 28.333 60.2012 27.3594L62.0825 27.092C62.2993 28.085 63.0984 28.2114 63.99 28.1132C64.3186 28.0772 64.6997 27.7903 64.6861 27.4061C64.6813 27.2806 64.5763 27.0385 64.4197 26.9957L62.5793 26.4967C61.6002 26.2312 60.5969 25.7945 60.4734 24.6604C60.3499 23.5264 61.1151 22.5285 62.2594 22.3437C62.9604 22.2299 63.6157 22.1735 64.3235 22.3184C64.7863 22.4128 65.2384 22.5256 65.602 22.8417C65.9967 23.186 66.2368 23.6412 66.4012 24.1401L64.5772 24.4581C64.5247 24.0701 64.2856 23.7929 63.9249 23.6849C63.5 23.5847 62.2069 23.5439 62.1768 24.1391C62.1534 24.6001 62.938 24.7285 63.3396 24.8238C64.1737 25.0223 65.5884 25.2819 66.1221 25.9229C66.7269 26.6485 66.6967 27.766 66.1416 28.5032Z" fill="white"/>
<path d="M108.279 26.6494L110.081 26.9907L109.915 27.5704C109.41 29.3318 107.632 29.7442 105.997 29.4106C105.121 29.2316 104.419 28.6627 104.042 27.8632C103.666 27.0637 103.65 26.4412 103.676 25.5309C103.695 24.8646 103.83 24.2354 104.18 23.6732C104.525 23.1169 105.01 22.6841 105.628 22.4652C106.294 22.2298 106.965 22.1676 107.655 22.2931C108.92 22.5236 109.634 23.1995 109.968 24.4688L108.205 24.8063C108.091 24.5271 108.002 24.1974 107.753 24.0058C107.226 23.5993 106.432 23.6761 106.006 24.1896C105.459 24.8491 105.509 25.9948 105.64 26.7855C105.72 27.265 106 27.6453 106.371 27.8262C106.814 28.0431 107.328 28.0285 107.71 27.7426C108.052 27.4868 108.193 27.122 108.278 26.6513L108.279 26.6494Z" fill="white"/>
<path d="M94.2384 22.4078L92.5643 26.8409L91.593 29.3804L89.8546 29.3687L89.177 27.6073L87.1353 22.4029L89.0963 22.3971L90.7335 26.9897L92.3445 22.4058L94.2384 22.4078Z" fill="white"/>
<path d="M82.168 26.4276L82.1564 29.3911L80.314 29.3853L80.312 22.401L82.0105 22.4088L82.0222 23.2598C82.2993 22.9447 82.4568 22.6383 82.764 22.4506C83.2842 22.1326 83.8694 22.1783 84.4081 22.4068C84.5383 22.4623 84.7027 22.5352 84.7571 22.649L84.2156 24.2402C84.094 24.1984 84.0036 24.1488 83.8938 24.0836C83.6089 23.9144 83.1646 23.8463 82.8564 24.0321C82.2244 24.4133 82.1719 25.6923 82.169 26.4266L82.168 26.4276Z" fill="white"/>
<path d="M99.6518 23.9056L99.6547 29.393L97.8191 29.3794L97.8181 22.4059L99.6576 22.399L99.6518 23.9056Z" fill="white"/>
</g>
<defs>
<clipPath id="clip0_124_3080">
<rect width="147" height="30" fill="white"/>
</clipPath>
</defs>
</svg>
