<svg width="196" height="40" viewBox="0 0 196 40" fill="none" xmlns="http://www.w3.org/2000/svg">
<g clip-path="url(#clip0_62_89)">
<path d="M195.736 25.6029H170.076C167.712 25.6029 165.614 23.8898 165.603 21.5789L165.564 13.9394C165.557 12.5739 166.485 10.9645 167.708 10.2565C168.316 9.90373 168.908 9.66771 169.652 9.65604L193.144 9.65344V15.952L172.725 15.9572L172.718 18.6429L195.99 18.6455L196 24.4357V25.1594L195.993 25.4849C195.993 25.5095 196.065 25.6042 195.736 25.6042V25.6029Z" fill="#CD050A"/>
<path d="M69.641 25.5989L44.0827 25.6028L44.0801 18.6377L66.9653 18.6351L66.9744 15.9546L50.9026 15.9468C48.6367 15.9468 46.8257 13.8252 46.6974 11.539C46.6624 10.9074 46.6831 10.294 46.6844 9.6521L70.2593 9.65469C70.9671 9.65469 71.5621 9.99964 72.1273 10.3148C73.4197 11.0371 74.1846 12.6542 74.1859 14.1339L74.191 21.2572C74.191 22.9716 73.0503 24.5355 71.544 25.2449C70.9567 25.5211 70.3682 25.5522 69.6422 25.5976L69.641 25.5989Z" fill="#CD050A"/>
<path d="M124.794 25.6029L124.745 21.3429H112.679L109.379 25.6003L104.433 25.5847L100.981 25.5809L105 19.9514L108.997 14.4335L110.339 12.5894L112.446 9.65088L121.362 9.65607C121.125 10.1074 120.847 10.3952 120.518 10.8102L117.215 14.9808C117.177 15.0287 117.184 15.1078 117.193 15.1545L123.932 15.1571C124.229 15.1519 124.472 15.139 124.758 15.104L124.761 9.65607L131.973 9.65218L131.976 25.468L131.902 25.599L124.793 25.6029H124.794Z" fill="#CD050A"/>
<path d="M23.6307 40C23.361 37.9017 21.6927 36.1926 19.5978 36.059C18.1796 35.9695 16.8691 36.5427 15.9863 37.632C15.4366 38.3102 15.0866 39.0274 15.0477 39.9157C12.3423 39.4398 9.31797 37.9199 7.17126 36.19L12.7584 31.4955L14.5253 29.9912C15.9526 30.7265 17.4654 31.1545 19.0482 31.1441L19.6613 31.1402C22.766 31.122 25.6464 29.5788 27.5948 27.1914C29.0428 25.2345 29.7649 23.3684 29.8426 20.8708C32.399 17.7533 34.6326 14.4477 36.6717 10.875C37.5895 12.6438 38.1987 14.4101 38.6784 16.2697C37.7658 16.4059 36.9452 16.6886 36.2776 17.2696C34.8477 18.5275 34.3811 20.5025 35.1264 22.2804C35.6813 23.607 37.1915 24.7612 38.7341 24.9116C38.3102 27.1227 37.3963 29.4401 36.1363 31.371C35.5607 30.7434 34.5846 30.2726 33.7186 30.2C32.0101 30.0587 30.4364 30.8679 29.551 32.3423C28.593 33.9374 28.8523 35.8995 29.9801 37.3882C27.8009 38.7291 26.1287 39.3801 23.632 39.9987L23.6307 40Z" fill="white"/>
<path d="M3.51692 32.5148C2.91284 31.7626 2.4656 31.0416 2.02097 30.2168C1.1278 28.5608 0.395378 26.8413 0 24.9336C1.56855 24.6963 2.9258 23.7354 3.55063 22.283C4.00693 21.2235 3.96415 20.0395 3.60378 18.9748C2.94395 17.4524 1.77207 16.4875 0.0920389 16.271C0.425194 14.7719 0.922981 13.3389 1.64374 11.9928L2.72487 9.97499L3.65304 10.4418C5.82438 11.5325 8.61536 10.2019 9.35944 7.93381C9.80279 6.58124 9.62649 5.15735 8.85518 3.96948L9.9376 3.31459C11.4932 2.3744 13.1966 1.78695 15.027 1.32788C15.1981 2.72973 15.9901 3.88907 17.1931 4.6101C18.2833 5.25202 19.5628 5.34539 20.7697 4.92911C22.2812 4.32739 23.3234 3.01503 23.571 1.34733C25.4014 1.71952 27.11 2.34458 28.7822 3.30551C28.3039 3.63749 27.8774 3.86703 27.3926 4.13028C24.4979 5.89653 21.7601 7.83785 19.1246 9.9711C18.9393 10.1215 18.7617 10.2006 18.54 10.211C18.1044 10.2305 17.7246 10.2849 17.3007 10.3679C15.0075 10.8179 12.9697 11.9824 11.4323 13.7578C8.66591 16.8364 8.06831 21.4971 9.85464 25.2501L4.72509 31.1544C4.32064 31.62 3.99008 32.0207 3.51433 32.5148H3.51692Z" fill="white"/>
<path d="M162.52 25.6042L139.053 25.6068C136.723 25.3812 135.127 23.4697 134.97 21.1821V9.65608L142.208 9.65479L142.205 18.643L162.508 18.6391L162.52 25.6042Z" fill="#CD050A"/>
<path d="M101.476 15.9351L84.3529 15.9585L84.3568 25.6041L77.0909 25.608L77.1 9.65601H105.287L105.268 11.8061C105.25 13.8758 103.419 15.9338 101.475 15.9364L101.476 15.9351Z" fill="#CD050A"/>
<path d="M20.9291 18.9554L16.3479 17.6573L14.8688 19.399L12.6028 22.0704L11.0563 20.4662L11.2637 20.1355L14.5719 14.0561C16.1469 13.8344 17.4601 13.8434 18.982 13.6684L20.5376 12.2108C23.278 9.64178 26.1468 7.69268 29.3733 5.76563C32.1967 4.07978 35.2923 2.48471 38.4579 1.41614C37.404 4.10442 36.262 6.64875 34.9034 9.15029C32.5298 13.5218 29.499 17.446 26.0664 21.0018L25.846 25.2242L24.9917 25.695L19.2996 28.8825L18.422 27.8814C18.2236 27.6557 18.0136 27.4858 17.8101 27.2356L20.2965 25.1568L21.502 24.1569L22.2539 23.5111L21.1689 19.8295L20.9317 18.9554H20.9291Z" fill="#CD050A"/>
<path d="M193.143 6.94051L165.562 6.9444V0H193.022C193.099 0.0311234 193.125 0.0609499 193.143 0.128384V6.93921V6.94051Z" fill="white"/>
<path d="M102.461 0.290531C103.959 0.823518 105.168 2.36542 105.26 4.01626C105.314 4.99275 105.278 5.95887 105.282 6.94315H77.0909L77.0987 0.00134277H101.301C101.721 0.0999001 102.083 0.15696 102.461 0.291827V0.290531Z" fill="white"/>
<path d="M134.981 4.30277C134.981 3.77757 135.171 3.27052 135.307 2.81923C135.568 2.10987 136.001 1.60412 136.545 1.1243C137.09 0.644483 137.647 0.290455 138.372 0.160774L139.253 0.00256348H162.517V6.94437H134.976L134.982 4.30277H134.981Z" fill="white"/>
<path d="M46.6961 6.9431C46.6702 4.06808 46.3927 2.42243 48.8972 0.592641C49.596 0.234722 50.2921 0.0648403 51.101 0H74.16V6.9431H46.6961Z" fill="white"/>
<path d="M114.376 6.94313L117.878 2.17347C119.373 0.137484 124.372 -0.18153 126.643 0.086909C128.473 0.303476 130.275 0.858509 131.278 2.52101C132.1 3.88266 131.977 5.36621 131.975 6.94313H114.376Z" fill="white"/>
<path d="M99.4085 36.1472L101.778 36.6517C101.4 37.8032 100.627 38.7849 99.4292 39.1428C98.085 39.5435 96.2403 39.4618 95.0697 38.5346C94.3217 37.942 93.8408 37.09 93.6308 36.1563C93.1084 33.8363 93.6904 30.7629 96.2066 29.9018C97.2761 29.5348 98.4752 29.5789 99.5083 30.012C101.494 30.8471 102.03 33.3085 101.908 35.2446L96.0121 35.2291C95.9512 36.0084 96.3168 36.7593 96.9455 37.1859C97.3642 37.4699 97.8581 37.5529 98.3274 37.4103C98.8718 37.1769 99.2205 36.7774 99.4085 36.1498V36.1472ZM99.485 33.6275C99.4785 32.8792 99.2102 32.3216 98.724 31.895C97.9281 31.3322 96.8742 31.5422 96.3492 32.3761C96.1236 32.7353 96.0147 33.1723 96.0212 33.6353L99.485 33.6288V33.6275Z" fill="white"/>
<path d="M155.897 37.4465C156.571 37.2948 156.756 36.6256 157.078 36.1782L159.389 36.6736C158.968 38.2039 157.694 39.2257 156.106 39.323C154.84 39.4008 153.641 39.3334 152.644 38.4645C151.873 37.7915 151.383 36.9317 151.238 35.9072C151.107 34.993 151.123 34.08 151.257 33.1697C151.355 32.5148 151.614 31.9533 151.954 31.4021C152.871 29.9095 154.572 29.4323 156.229 29.7422C157.349 29.951 158.261 30.5696 158.82 31.5681C159.445 32.6315 159.546 34.0398 159.541 35.2497L153.632 35.2199C153.596 35.7659 153.749 36.282 154.061 36.719C154.485 37.3117 155.167 37.6112 155.9 37.4465H155.897ZM157.083 33.6378C157.088 32.9557 156.825 32.4551 156.454 31.9792C155.754 31.4268 154.699 31.489 154.133 32.2048C153.812 32.6094 153.68 33.1022 153.713 33.6339L157.083 33.6378Z" fill="white"/>
<path d="M88.1888 38.0042C87.0027 39.5825 84.3802 39.528 82.7158 39.1117C81.4104 38.7849 80.5172 37.7773 80.2683 36.4792L82.7767 36.1226C83.0658 37.4466 84.1313 37.6152 85.3201 37.4842C85.7582 37.4362 86.2664 37.0537 86.2482 36.5414C86.2418 36.3742 86.1018 36.0512 85.8931 35.9942L83.4391 35.3289C82.1337 34.9749 80.7959 34.3926 80.6313 32.8806C80.4666 31.3685 81.4869 30.038 83.0126 29.7916C83.9473 29.6398 84.821 29.5646 85.7647 29.7578C86.3818 29.8836 86.9846 30.0341 87.4694 30.4555C87.9957 30.9146 88.3159 31.5215 88.535 32.1868L86.1031 32.6108C86.0331 32.0934 85.7142 31.7238 85.2332 31.5799C84.6667 31.4463 82.9426 31.3918 82.9024 32.1855C82.8713 32.8002 83.9175 32.9713 84.4528 33.0984C85.5651 33.363 87.4512 33.7092 88.1629 34.5638C88.9692 35.5312 88.929 37.0213 88.1888 38.0042Z" fill="white"/>
<path d="M144.373 35.5325L146.775 35.9877L146.553 36.7606C145.88 39.1091 143.509 39.659 141.329 39.2142C140.161 38.9755 139.225 38.2169 138.723 37.1509C138.222 36.085 138.2 35.255 138.235 34.0412C138.26 33.1529 138.441 32.3138 138.906 31.5643C139.366 30.8225 140.013 30.2454 140.838 29.9537C141.726 29.6398 142.62 29.5568 143.54 29.7241C145.227 30.0315 146.178 30.9328 146.624 32.6251L144.273 33.0751C144.121 32.7029 144.003 32.2633 143.671 32.0078C142.967 31.4657 141.91 31.5682 141.342 32.2529C140.612 33.1321 140.678 34.6598 140.853 35.7141C140.959 36.3534 141.333 36.8605 141.828 37.1017C142.419 37.3908 143.104 37.3714 143.613 36.9901C144.069 36.6491 144.257 36.1628 144.37 35.5351L144.373 35.5325Z" fill="white"/>
<path d="M125.651 29.8772L123.419 35.788L122.124 39.174L119.806 39.1584L118.903 36.8099L116.18 29.8707L118.795 29.8629L120.978 35.9864L123.126 29.8746L125.651 29.8772Z" fill="white"/>
<path d="M109.557 35.2368L109.542 39.1882L107.085 39.1804L107.083 29.8681L109.347 29.8784L109.363 31.0131C109.732 30.593 109.942 30.1845 110.352 29.9342C111.046 29.5101 111.826 29.5711 112.544 29.8758C112.718 29.9498 112.937 30.047 113.009 30.1987L112.287 32.3203C112.125 32.2646 112.005 32.1984 111.858 32.1115C111.478 31.8859 110.886 31.7951 110.475 32.0428C109.633 32.5511 109.563 34.2564 109.559 35.2355L109.557 35.2368Z" fill="white"/>
<path d="M132.869 31.8742L132.873 39.1908L130.426 39.1727L130.424 29.8746L132.877 29.8655L132.869 31.8742Z" fill="white"/>
</g>
<defs>
<clipPath id="clip0_62_89">
<rect width="196" height="40" fill="white"/>
</clipPath>
</defs>
</svg>
