<svg width="36" height="36" viewBox="0 0 36 36" fill="none" xmlns="http://www.w3.org/2000/svg">
<path d="M33.84 18.375C33.84 17.205 33.735 16.08 33.54 15H18V21.39H26.88C26.49 23.445 25.32 25.185 23.565 26.355V30.51H28.92C32.04 27.63 33.84 23.4 33.84 18.375Z" fill="#4285F4"/>
<path d="M18 34.5C22.455 34.5 26.19 33.03 28.92 30.51L23.565 26.355C22.095 27.345 20.22 27.945 18 27.945C13.71 27.945 10.065 25.05 8.76002 21.15H3.27002V25.41C5.98502 30.795 11.55 34.5 18 34.5Z" fill="#34A853"/>
<path d="M8.76 21.135C8.43 20.145 8.235 19.095 8.235 18C8.235 16.905 8.43 15.855 8.76 14.865V10.605H3.27C2.145 12.825 1.5 15.33 1.5 18C1.5 20.67 2.145 23.175 3.27 25.395L7.545 22.065L8.76 21.135Z" fill="#FBBC05"/>
<path d="M18 8.07C20.43 8.07 22.59 8.91 24.315 10.53L29.04 5.805C26.175 3.135 22.455 1.5 18 1.5C11.55 1.5 5.98502 5.205 3.27002 10.605L8.76002 14.865C10.065 10.965 13.71 8.07 18 8.07Z" fill="#EA4335"/>
</svg>
