<svg xmlns="http://www.w3.org/2000/svg" style="display: none;">
  <defs>
    <symbol id="Vector" width="24" height="22" fill="none" viewBox="0 0 24 22">
      <path fill="#fff" d="M12.345 21.844c-.203-1.574-1.454-2.856-3.025-2.956a3.179 3.179 0 0 0-2.709 1.18c-.412.508-.674 1.046-.704 1.712C3.878 21.424 1.61 20.285 0 18.986l4.19-3.52 1.326-1.129c1.07.552 2.205.873 3.392.865l.46-.003c2.328-.014 4.488-1.171 5.95-2.962 1.086-1.467 1.627-2.867 1.685-4.74C18.921 5.159 20.596 2.68 22.125 0c.689 1.327 1.146 2.651 1.505 4.046-.684.102-1.3.314-1.8.75a3.27 3.27 0 0 0-.864 3.758c.416.995 1.55 1.86 2.706 1.973a13.89 13.89 0 0 1-1.948 4.845c-.432-.47-1.164-.824-1.814-.878a3.282 3.282 0 0 0-3.125 1.607c-.719 1.196-.524 2.667.322 3.784-1.635 1.006-2.889 1.494-4.761 1.958h-.001Z" style="mix-blend-mode:difference"/>
    </symbol>
    <symbol id="Vector" width="22" height="24" fill="none" viewBox="0 0 22 24">
      <path fill="#fff" d="M2.638 23.39a10.872 10.872 0 0 1-1.122-1.723C.846 20.425.296 19.135 0 17.704c1.176-.178 2.194-.898 2.663-1.988.342-.794.31-1.682.04-2.48-.495-1.143-1.374-1.866-2.634-2.029C.319 10.083.692 9.008 1.233 8l.81-1.514.697.35c1.628.818 3.722-.18 4.28-1.88a3.43 3.43 0 0 0-.38-2.976l.812-.491C8.62.785 9.897.344 11.27 0c.129 1.051.723 1.92 1.625 2.462.818.481 1.777.551 2.682.239 1.134-.451 1.916-1.436 2.101-2.686 1.373.279 2.654.748 3.909 1.468-.36.25-.679.421-1.043.619a57.072 57.072 0 0 0-6.2 4.38.716.716 0 0 1-.439.18 6.058 6.058 0 0 0-.93.118 7.74 7.74 0 0 0-4.4 2.542c-2.076 2.31-2.524 5.805-1.184 8.62L3.544 22.37c-.304.35-.551.65-.908 1.02h.002Z" style="mix-blend-mode:difference"/>
    </symbol>
    <symbol id="Vector" width="21" height="21" fill="none" viewBox="0 0 21 21">
      <path fill="#CD050A" d="m7.405 13.155-3.436-.974-1.11 1.306-1.7 2.004L0 14.288l.156-.248 2.48-4.56c1.182-.166 2.167-.16 3.308-.29l1.167-1.094c2.055-1.927 4.207-3.389 6.627-4.834C15.855 1.998 18.177.802 20.55 0c-.79 2.016-1.647 3.924-2.666 5.8-1.78 3.28-4.053 6.222-6.627 8.89l-.166 3.166-.64.353-4.27 2.39-.658-.75c-.148-.17-.306-.297-.459-.484l1.865-1.56.904-.75.564-.484-.814-2.761-.177-.655h-.002Z"/>
    </symbol>
  </defs>
</svg>
