<svg aria-hidden="true" style="position: absolute; width: 0; height: 0; overflow: hidden;" version="1.1" xmlns="http://www.w3.org/2000/svg" xmlns:xlink="http://www.w3.org/1999/xlink">
<defs>
<symbol id="icon-free-icon-font-angle-small-right" viewBox="0 0 32 32">
<path d="M20.082 12.7l-6.115-6.115c-0.362-0.362-0.862-0.585-1.414-0.585-1.105 0-2 0.896-2 2 0 0.552 0.224 1.053 0.586 1.415l6.115 6.113c0.121 0.121 0.196 0.288 0.196 0.472s-0.075 0.351-0.196 0.472v0l-6.115 6.113c-0.362 0.362-0.586 0.862-0.586 1.415 0 1.105 0.896 2 2 2 0.552 0 1.052-0.224 1.414-0.585l6.115-6.115c0.843-0.845 1.364-2.012 1.364-3.3s-0.521-2.455-1.364-3.3l0 0z"></path>
</symbol>
</defs>
</svg>
