<svg width="12" height="12" viewBox="0 0 12 12" fill="none" xmlns="http://www.w3.org/2000/svg">
<path d="M7.87507 4.76256L5.58207 2.46956C5.44137 2.32893 5.25057 2.24995 5.05164 2.25C4.85271 2.25005 4.66195 2.32912 4.52132 2.46981C4.38069 2.61051 4.30171 2.80131 4.30176 3.00024C4.3018 3.19917 4.38087 3.38993 4.52157 3.53056L6.81457 5.82306C6.83785 5.84629 6.85632 5.87387 6.86892 5.90425C6.88153 5.93462 6.88801 5.96718 6.88801 6.00006C6.88801 6.03295 6.88153 6.06551 6.86892 6.09588C6.85632 6.12625 6.83785 6.15384 6.81457 6.17706L4.52157 8.46956C4.38087 8.61019 4.3018 8.80096 4.30176 8.99989C4.30171 9.19882 4.38069 9.38962 4.52132 9.53031C4.66195 9.67101 4.85271 9.75008 5.05164 9.75013C5.25057 9.75017 5.44137 9.6712 5.58207 9.53056L7.87507 7.23756C8.20268 6.90905 8.38666 6.46402 8.38666 6.00006C8.38666 5.53611 8.20268 5.09108 7.87507 4.76256Z" fill="black"/>
</svg>
